<mxfile host="app.diagrams.net" modified="2023-12-27T23:44:13.868Z" agent="Mozilla/5.0 (Macintosh; Intel Mac OS X 10_15_7) AppleWebKit/537.36 (KHTML, like Gecko) Chrome/120.0.0.0 Safari/537.36" version="21.8.2" etag="I9rSI0diW2tr_6XNVaHH" type="github">
  <diagram name="Page-1" id="TQvrlzg5ROCd5zCWXmOl">
    <mxGraphModel>
      <root>
        <mxCell id="0" />
        <mxCell id="1" parent="0" />
      </root>
    </mxGraphModel>
  </diagram>
</mxfile>
